<svg version="1" xmlns="http://www.w3.org/2000/svg" width="965.333" height="965.333" viewBox="0 0 724.000000 724.000000"><path d="M2 1c0 .7 120.7 1 360 1s360-.3 360-1-120.7-1-360-1S2 .3 2 1zM560.1 18c-1.7 2.8-3.1 5.2-3.1 5.4 0 .2 2.3 1.7 5 3.4l5.1 3.2-2.4 3.7c-1.3 2.1-8.6 13.7-16.2 25.8-7.6 12.1-14 22.2-14.2 22.5-.2.2-2.7-.8-5.5-2.4-5.6-3.2-5.7-3.1-9.7 3.6l-2.2 3.7 5.3 3.4c16.4 10.4 25 15.7 25.6 15.7.8 0 6.2-8.3 6.2-9.6 0-.5-2.1-2.2-4.6-3.8-3.1-2-4.3-3.3-3.9-4.4 1-2.6 31.7-51.2 32.4-51.2.3 0 2.6 1.3 5 2.9 2.5 1.7 4.8 2.8 5.3 2.5 1.8-1.1 6-9.6 5.2-10.4-1-1-29.3-19-29.9-19-.2 0-1.7 2.3-3.4 5zM612.7 51.2c-17.2 27-42.7 68-42.7 68.6 0 1.1 9 6.3 9.9 5.7.5-.2 5.1-7.2 10.2-15.5 5.2-8.2 9.7-15 10-15 .4 0 1.7.8 2.9 1.8 2 1.6 2.1 2.1.9 4-1.2 1.9-1.1 2.4.8 4.4 1.9 2 2 2.5.7 4.2-1.9 2.7-1.8 3.1 1.1 4.4 2.5 1.1 2.5 1.3 1.1 4.1-1.5 2.8-1.4 3 1 4.6 2.4 1.5 2.5 1.8 1 4s-1.4 2.5 1.1 4.3c2.5 1.8 2.5 1.9.9 4.5-1.7 2.5-1.7 2.6.3 3.9 2.2 1.3 2.8 4.3 1.1 5.3-.5.3-1 1-1 1.4 0 1.2 9.2 7.1 10.1 6.5.4-.2 1.9-2.5 3.4-5.1l2.8-4.6-2.3-1.9c-2.1-1.7-2.2-2.1-1-4.3 1.2-2.2 1.1-2.6-1-4.3-2-1.6-2.1-2.1-1-4.2s1-2.6-1-4.2-2.2-2.2-1.1-4.5c1.1-2.4 1-2.9-1-4.4-2.2-1.6-2.2-1.8-.5-4.4 1.9-2.9 1-3.1 9.2 2.2 2.5 1.6 2.7 1.6 4.4-.7 1.7-2.2 2-2.3 4.4-1.1 2.3 1.3 2.7 1.2 4.4-.9 1.6-1.9 2.1-2.1 4-1.1 1.2.7 2.6.9 3.1.7 1.2-.8 12.1-18.4 12.1-19.5 0-.5-.9-1.5-2.1-2.2-1.8-1.3-1.9-1.7-.8-4.1 1.1-2.4.9-2.9-1.1-4.6-2.2-1.8-2.2-2-.6-4.4l1.7-2.5-18.8-11.8C629 54 619.5 48 618.3 47.3c-2.1-1.4-2.4-1.2-5.6 3.9zm20.1 20c6.3 4 12 7.6 12.5 8 .7.4.5 1.5-.6 3.1-1.5 2.3-1.4 2.5 1.1 4.4l2.6 1.9-3.3 4.7c-3.3 4.8-4.8 5.6-6.9 3.5-1-1-1.7-.7-3.5 1.4l-2.2 2.8-12.7-8.1c-7.1-4.4-12.8-8.5-12.8-8.9 0-1.6 12.2-20 13.2-20 .6 0 6.2 3.3 12.6 7.2zM303.5 72c-30.6 4.5-60.5 16.3-82.5 32.5-3 2.2-8 5.7-11 7.6-3 2-9.2 6.7-13.7 10.5s-11.8 9.6-16.2 12.9c-8.3 6.2-31.8 29.9-39.7 40.1-6.5 8.4-12 20.5-16.5 36.2-2.3 8.1-4.6 14.1-5.5 14.7-.9.5-5.5 4-10.3 7.6-26.7 20.6-44.4 47.8-55.5 85.4-1.8 6.1-3.3 16.3-4.1 27.5-.7 9 1.2 24.6 4.1 35 5.5 19.7 17.5 41.2 26.1 47.1 2.6 1.8 5 3.6 5.3 4 .3.4.2 5.9-.1 12.1-.4 6.2-1.2 38.1-1.9 70.8-1.3 68.6-.1 110.3 4 145 3.1 25.3 4 31.2 4.8 32.3.5.7 1.2 4.8 1.5 9.2.3 4.4 1.3 9.7 2.2 11.7.8 2.1 1.5 4.7 1.5 5.8 0 2-.4 2-47 2-30.7 0-47 .3-47 1s120.7 1 360 1 360-.3 360-1c0-.6-6-1-16-1-8.8 0-16-.2-16-.5s.7-2.2 1.6-4.3c3.7-8.9 11-33.6 13.3-45.2 7.8-39.6 10.2-70.6 8.2-104.4-.7-10.5-1.6-27.7-2.1-38.1-1.6-31.8-4.1-64-5.9-76-.5-3.3-1.7-14.8-2.7-25.5-1.8-21.1-5.8-41.8-12.4-64.6-4-14-5.1-16.5-11.3-26.1-3.3-5.2-5-6.8-10.6-9.7-15.3-8-46.9-15.3-77.2-17.8l-14.7-1.2-1.1-5c-.6-2.8-1.7-10.3-2.6-16.6-2.7-20.3-3.6-26.3-6-38.5-4.9-24.5-11.1-44.2-18.2-57.5-1.9-3.6-4.1-8.5-4.9-11-3.9-11.6-11.8-28.5-16.2-34.8-1.1-1.5-3.4-5.4-5.1-8.7-1.8-3.3-4.1-7.6-5.3-9.5-2.7-4.6-18.1-18.6-29.2-26.4-16.8-11.9-43.4-24.2-57.3-26.5C415.1 71.6 317 70 303.5 72zm-2.2 176.9c2.3.5 9.4 1.7 15.7 2.6 17.1 2.6 20.9 4.7 31.3 17.5 1.5 1.9 2.7 4.1 2.7 4.9 0 .9.7 2.9 1.5 4.5 2 3.8 2 19.2 0 28.6-3.1 14.7-13.8 30.3-29.8 43.4-5.5 4.5-9.3 5.8-24.2 8.5-18.6 3.2-34.6 4.6-51 4.4-22.2-.3-58.1-2.2-74-3.8-7.7-.8-19.6-1.9-26.5-2.5-29-2.5-33.5-4-43.3-14.3-7.5-7.9-9-10.8-9.1-18.2-.1-5.2.4-7 3.7-12.9 12.9-23.3 35.5-42.4 63.2-53.3 12.2-4.8 20.1-6.2 46.5-8.3 24.9-1.9 86.2-2.6 93.3-1.1zM676.1 89.3c-1.2 1.9-2.1 3.7-2.1 4.1 0 .4-9.2 15.4-20.5 33.3-16.5 26.2-20.3 32.9-19.3 33.8.7.7 9.9 6.5 20.3 13.1 10.5 6.5 19.8 12.5 20.7 13.4.9.8 3.3 2.4 5.3 3.5l3.7 1.9 1.8-2.4c1-1.3 2.5-3.6 3.4-5l1.5-2.7-13.7-9c-7.5-4.9-16.7-10.9-20.4-13.2-3.8-2.4-6.8-4.4-6.8-4.6 0-.2 5.2-8.6 11.6-18.7 6.4-10 12-19.3 12.5-20.5.4-1.2 3.8-6.9 7.4-12.6 3.6-5.8 6.5-10.8 6.5-11.3 0-.7-5.9-4.7-9.1-6.2-.4-.2-1.6 1.2-2.8 3.1z"/></svg>